<?xml version="1.0" encoding="utf-8"?>
<!-- Generator: Adobe Illustrator 21.0.2, SVG Export Plug-In . SVG Version: 6.00 Build 0)  -->
<svg version="1.1" id="Layer_1" xmlns="http://www.w3.org/2000/svg" xmlns:xlink="http://www.w3.org/1999/xlink" x="0px" y="0px"
	 viewBox="0 0 360 360" style="enable-background:new 0 0 360 360;" xml:space="preserve">
<style type="text/css">
	.st0{fill:#C0D7E2;}
	.st1{fill:#849CB3;stroke:#354551;stroke-width:4.366;stroke-linecap:round;stroke-linejoin:round;stroke-miterlimit:10;}
	.st2{fill:#FFFFFF;stroke:#6C8195;stroke-width:2.183;stroke-linecap:round;stroke-linejoin:round;stroke-miterlimit:10;}
	.st3{fill:#849CB3;stroke:#354551;stroke-width:2.183;stroke-linecap:round;stroke-linejoin:round;stroke-miterlimit:10;}
	.st4{fill:none;stroke:#354551;stroke-width:2.183;stroke-linecap:round;stroke-linejoin:round;stroke-miterlimit:10;}
	.st5{fill:#FFFFFF;stroke:#354551;stroke-width:2.183;stroke-linecap:round;stroke-linejoin:round;stroke-miterlimit:10;}
	.st6{fill:#FFFFFF;stroke:#354551;stroke-width:2.409;stroke-linecap:round;stroke-linejoin:round;stroke-miterlimit:10;}
</style>
<ellipse class="st0" cx="175.3" cy="162.9" rx="98.2" ry="92.7"/>
<g>
	<rect x="91.4" y="94.4" class="st1" width="167.5" height="113.5"/>
	<rect x="101.5" y="104.6" class="st2" width="147.6" height="86.4"/>
	<rect x="152" y="208.5" class="st3" width="46.6" height="18.5"/>
	<line class="st4" x1="138.7" y1="227" x2="211.9" y2="227"/>
</g>
<line class="st3" x1="114.1" y1="120.2" x2="237.2" y2="120.2"/>
<line class="st3" x1="114.1" y1="131.2" x2="237.2" y2="131.2"/>
<line class="st3" x1="114.1" y1="140.2" x2="237.2" y2="140.2"/>
<line class="st3" x1="114.1" y1="151.2" x2="237.2" y2="151.2"/>
<line class="st3" x1="113.5" y1="162.1" x2="185.5" y2="162.1"/>
<line class="st3" x1="113.5" y1="173.1" x2="185.5" y2="173.1"/>
<line class="st5" x1="264.6" y1="219.3" x2="236.6" y2="191.7"/>
<circle class="st6" cx="225.1" cy="180" r="21"/>
<path class="st6" d="M209.4,180c0,0-0.4,14.5,16.7,16.7"/>
</svg>
