<?xml version="1.0" encoding="utf-8"?>
<!-- Generator: Adobe Illustrator 21.0.2, SVG Export Plug-In . SVG Version: 6.00 Build 0)  -->
<svg version="1.1" id="Layer_1" xmlns="http://www.w3.org/2000/svg" xmlns:xlink="http://www.w3.org/1999/xlink" x="0px" y="0px"
	 viewBox="0 0 360 360" style="enable-background:new 0 0 360 360;" xml:space="preserve">
<style type="text/css">
	.st0{fill:#C0D7E2;}
	.st1{fill:#849CB3;stroke:#354551;stroke-width:3.2587;stroke-linecap:round;stroke-linejoin:round;stroke-miterlimit:10;}
	.st2{fill:#FFFFFF;stroke:#354551;stroke-width:1.2065;stroke-miterlimit:10;}
	.st3{fill:#354551;}
	.st4{fill:#354551;stroke:#FFFFFF;stroke-width:1.3552;stroke-miterlimit:10;}
	.st5{fill:#FFFFFF;}
	.st6{fill:none;stroke:#354551;stroke-width:4.3684;stroke-miterlimit:10;}
	.st7{fill:none;stroke:#354551;stroke-width:4.3684;stroke-linecap:round;stroke-linejoin:round;stroke-miterlimit:10;}
</style>
<g>
	<ellipse class="st0" cx="176.3" cy="171.8" rx="98.2" ry="92.7"/>
	<g>
		<path class="st1" d="M186.4,227.9h-78.8c-3.1,0-5.5-2.5-5.5-5.5V84.6c0-3.1,2.5-5.5,5.5-5.5h78.8c3.1,0,5.5,2.5,5.5,5.5v137.8
			C191.9,225.5,189.5,227.9,186.4,227.9z"/>
		<path class="st2" d="M178.1,202.5h-61.7c-1.6,0-2.9-1.3-2.9-2.9V96.7c0-1.6,1.3-2.9,2.9-2.9h61.7c1.6,0,2.9,1.3,2.9,2.9v102.8
			C181.1,201.2,179.7,202.5,178.1,202.5z"/>
		<path class="st3" d="M153.4,218.6h-13.3c-0.7,0-1.2-0.6-1.2-1.2v-8.2c0-0.7,0.6-1.2,1.2-1.2h13.3c0.7,0,1.2,0.6,1.2,1.2v8.2
			C154.7,218,154.1,218.6,153.4,218.6z"/>
	</g>
	<circle class="st4" cx="161" cy="145.8" r="19"/>
	<g>
		<g id="XMLID_1_">
			<g>
				<path class="st5" d="M262,174.5c0,0,23.3,39,19.6,46.7c0,0,0.9,5.5-6.9,10.6c-7.8,5-34.4,22.4-34.4,22.4c-1.9,0.5-4.6,1-7.9,1.2
					c-7.1,0.2-12.6-1.8-20.7-5.3c-12-5.2-20.1-9.4-20.1-9.4c-6.5-3.4-15.1-8-25.3-13.8c-8.8-3.4-12.7-10.3-11.2-14.3
					c0.9-2.5,4.3-4.4,7.1-4.9c1.9-0.3,3.3,0,6.2,0.6c3.3,0.7,5.9,1.7,7.6,2.4c4.4,1.6,9.5,3.2,15.1,4.5c4.4,1,8.6,1.7,12.4,2.2
					c-13-19.9-25.9-39.9-38.9-59.8c-3.1-6.2-2.2-12.5,1.2-15c2.8-2,6.7-1.2,8-0.9c4.4,0.9,7,3.8,7.9,4.9
					c7.4,11.4,14.9,22.9,22.3,34.3c0,0,0,0,0,0h0c3.6,5.5,7.2,11.1,10.8,16.6l8.9-8.8l6.9,2.7l-3.8-5.8l5.2-5.2l14.7,4.2l-7.4-11.4
					c0-1.2,0.1-3.9,1.8-6.5c1.8-2.7,5.4-5.2,9.4-4.6c2.3,0.3,3.9,1.6,4.6,2.3C257.5,167.7,259.7,171.1,262,174.5z"/>
				<polygon class="st5" points="239.4,173 246.8,184.4 232.2,180.2 				"/>
				<path class="st5" d="M236.1,167.8l3.4,5.2l-7.3,7.2l-10.5-3c-1.5-3.5-0.8-7.4,1.7-9.9c2.9-2.9,6.9-2.4,7.4-2.3
					C233.7,165.4,235.5,167.2,236.1,167.8z"/>
				<polygon class="st5" points="232.2,180.2 227,185.3 221.6,177.2 221.7,177.2 				"/>
				<polygon class="st5" points="227,185.3 230.8,191.2 223.8,188.4 				"/>
				<path class="st5" d="M221.6,177.2l5.3,8.2l-3.1,3.1l-19.7-7.8h0c0,0,0,0,0,0c-1.5-3.7-0.9-7.7,1.7-10.1c2.4-2.2,5.4-2.1,6-2.1
					c3.8,0.2,6,2.8,6.3,3.2L221.6,177.2z"/>
				<path class="st5" d="M223.8,188.4l-8.9,8.8c-3.6-5.5-7.2-11.1-10.8-16.6L223.8,188.4z"/>
			</g>
			<g>
				<path class="st6" d="M221.6,177.2l-3.6-5.6c-0.3-0.4-2.6-3-6.3-3.2c-0.6,0-3.6-0.1-6,2.1c-2.5,2.4-3.2,6.4-1.7,10.1"/>
				<path class="st6" d="M239.4,173l-3.4-5.2c-0.5-0.6-2.4-2.4-5.4-2.9c-0.4-0.1-4.5-0.6-7.4,2.3c-2.5,2.5-3.1,6.4-1.7,9.9"/>
				<path class="st6" d="M204.1,180.7c3.6,5.5,7.2,11.1,10.8,16.6"/>
				<path class="st6" d="M239.4,173c0-1.2,0.1-3.9,1.8-6.5c1.8-2.7,5.4-5.2,9.4-4.6c2.3,0.3,3.9,1.6,4.6,2.3
					c2.2,3.4,4.5,6.9,6.7,10.3c0,0,23.3,39,19.6,46.7c0,0,0.9,5.5-6.9,10.6c-7.8,5-34.4,22.4-34.4,22.4c-1.9,0.5-4.6,1-7.9,1.2
					c-7.1,0.2-12.6-1.8-20.7-5.3c-12-5.2-20.1-9.4-20.1-9.4c-6.5-3.4-15.1-8-25.3-13.8c-8.8-3.4-12.7-10.3-11.2-14.3
					c0.9-2.5,4.3-4.4,7.1-4.9c1.9-0.3,3.3,0,6.2,0.6c3.3,0.7,5.9,1.7,7.6,2.4c4.4,1.6,9.5,3.2,15.1,4.5c4.4,1,8.6,1.7,12.4,2.2
					c-13-19.9-25.9-39.9-38.9-59.8c-3.1-6.2-2.2-12.5,1.2-15c2.8-2,6.7-1.2,8-0.9c4.4,0.9,7,3.8,7.9,4.9
					c7.4,11.4,14.9,22.9,22.3,34.3c0,0,0,0,0,0"/>
			</g>
		</g>
	</g>
	<path class="st7" d="M136.7,144.6c0,0-2.7-15.4,15.9-20"/>
	<path class="st7" d="M127.2,145.8c-0.2-0.6-3.4-12.4,5-21.5c5.4-5.9,13.7-8.4,21.5-6.6"/>
</g>
</svg>
